<svg xmlns="http://www.w3.org/2000/svg" viewBox="0 0 94.01 70.51">
  <defs>
    <style>
      .cls-1 {
        fill: #b3b3b3;
      }
    </style>
  </defs>
  <title>icon-wallet</title>
  <g id="Layer_2" data-name="Layer 2">
    <g id="UI">
      <g>
        <path class="cls-1" d="M92.05,19.59h-2V5.89A5.89,5.89,0,0,0,84.22,0H5.88A5.89,5.89,0,0,0,0,5.89V64.62a5.89,5.89,0,0,0,5.88,5.89H84.22a5.89,5.89,0,0,0,5.88-5.89V50.92h2a2,2,0,0,0,2-2V21.54A2,2,0,0,0,92.05,19.59Zm-5.88,45a2,2,0,0,1-2,2H5.88a2,2,0,0,1-2-2V5.89a2,2,0,0,1,2-2H84.22a2,2,0,0,1,2,2v13.7H70.51a15.67,15.67,0,1,0,0,31.34H86.18ZM90.1,47H70.51a11.75,11.75,0,0,1,0-23.5H90.1Z"/>
        <path class="cls-1" d="M62.68,35.25a7.83,7.83,0,1,0,7.83-7.83A7.84,7.84,0,0,0,62.68,35.25Zm11.75,0a3.92,3.92,0,1,1-3.92-3.92A3.92,3.92,0,0,1,74.43,35.25Z"/>
      </g>
    </g>
  </g>
</svg>
