<svg xmlns="http://www.w3.org/2000/svg" xmlns:xlink="http://www.w3.org/1999/xlink" viewBox="0 0 138.46 185.04">
    <g id="icon-rabbit__mask">
      <path class="cls-1" d="M65.84,185c-5.21-.84-10.52-1.28-15.6-2.6-19.47-5.06-34.84-15.75-44.16-34A55.81,55.81,0,0,1,16.28,83.8a91.55,91.55,0,0,1,9.25-8c1.52-1.18,1.94-2.12,1.32-4-2.85-8.5-5.78-17-8.27-25.59s-4-17.18-2.76-26.1c.79-5.86,2.76-11.16,7-15.47A18.53,18.53,0,0,1,31.63,0h2.89A45.93,45.93,0,0,1,40.7,2.49,26.24,26.24,0,0,1,51.47,15.06C56.16,25.59,57.74,36.83,59,48.15c.51,4.66,1,9.32,1.55,13.88H77.9c.36-3.24.59-6.43,1.08-9.58,1.39-9,2.36-18.11,4.45-27,2.72-11.55,7.46-22,20.48-25.49h2.89c10.73,2.8,14.63,10.85,15.83,20.84,1.4,11.61-1.69,22.57-5.15,33.45q-2.8,8.81-5.91,17.52c-.65,1.83-.23,2.8,1.34,3.94,11.62,8.41,20,19.29,23.56,33.28,5.21,20.35.1,38.32-14,53.57C109.88,176.14,93.94,183,75.65,184.54c-1,.09-2,.33-3.07.5Zm3.37-7.47c18.35-.39,34.54-6.12,47.39-19.56,11.92-12.45,16.88-27.29,13.39-44.4-3-14.82-11.85-25.7-24.26-33.9-3-1.95-3.36-2.85-2.29-6.19,2.16-6.71,4.42-13.39,6.6-20.09,3.15-9.71,6-19.48,5.52-29.85-.26-5.05-1.38-9.87-5.13-13.63-2.84-2.83-5.71-3.17-9.13-1a18.59,18.59,0,0,0-7.65,9.35c-1.67,4.4-3.47,8.88-4.19,13.49-1.79,11.39-3,22.86-4.42,34.32-.35,2.87-1.83,4.54-4.45,4.11a68.87,68.87,0,0,0-22.75,0,3.62,3.62,0,0,1-4.38-3.4c-.53-5.18-1-10.38-1.5-15.56-1-9.09-2.06-18.16-4.84-26.92-1.61-5.09-3.62-10-7.68-13.68-5-4.59-10.33-4.05-13.43,2a30.78,30.78,0,0,0-3,11c-.76,8.09,1.14,16,3.52,23.64,2.74,8.88,5.74,17.67,8.58,26.52,1,3.05.47,4-2.15,5.84a98.17,98.17,0,0,0-8.56,6.62c-21.24,19.11-22.76,50.2-3.37,71C34,171.1,50.41,177.18,69.21,177.57Z"/>
      <path class="cls-2" d="M69,149.63l-1.16,1c-6.11,5.13-13,4.52-18.14-1.68a27.57,27.57,0,0,1-3-4.61A3.52,3.52,0,0,1,48,139.5c1.79-1.07,3.71-.57,5,1.25a29.62,29.62,0,0,0,3.49,4.53,4.89,4.89,0,0,0,7.76-1.87,2.52,2.52,0,0,0-.47-1.91c-1.47-2.2-3-4.33-4.57-6.49a6.94,6.94,0,0,1-.62-7.69,6.86,6.86,0,0,1,6.46-3.82c2.65,0,5.29,0,7.94,0a7.2,7.2,0,0,1,6,11.55c-1.26,1.76-2.53,3.51-3.74,5.31-.83,1.23-2.37,2.29-.57,4.07,2.17,2.13,4.28,3,6.11,1.53a24.25,24.25,0,0,0,4.2-4.83c1.47-2,3.2-2.76,5.09-1.7,1.65.93,2.55,2.47,1.79,4.23-2,4.57-5,8.27-9.9,9.87-4.19,1.36-7.88.06-11.17-2.64-.49-.41-1-.81-1.49-1.21C69.38,149.63,69.28,149.65,69,149.63Zm3.77-18.52H65.62l3.62,5.09Z"/>
      <path class="cls-3" d="M46.2,100.37a7.57,7.57,0,1,1-7.69,7.39A7.74,7.74,0,0,1,46.2,100.37Z"/>
      <path class="cls-4" d="M99.91,108a7.57,7.57,0,1,1-7.41-7.67A7.74,7.74,0,0,1,99.91,108Z"/>
    </g>
</svg>
