<svg xmlns="http://www.w3.org/2000/svg" xmlns:xlink="http://www.w3.org/1999/xlink" viewBox="0 0 158.91 152.29">
  <defs>
    <style>
      #icon-cat .cls-1 {
        fill: url(#linear-gradient);
      }

      #icon-cat .cls-2 {
        fill: url(#linear-gradient-2);
      }

      #icon-cat .cls-3 {
        fill: url(#linear-gradient-3);
      }

      #icon-cat .cls-4 {
        fill: url(#linear-gradient-4);
      }

      #icon-cat .cls-5 {
        fill: url(#linear-gradient-5);
      }

      #icon-cat .cls-6 {
        fill: url(#linear-gradient-6);
      }
    </style>
    <linearGradient id="linear-gradient" x1="40.03" y1="-22.56" x2="171.03" y2="66.44" gradientUnits="userSpaceOnUse">
      <stop offset="0" stop-color="#369cdc"/>
      <stop offset="1" stop-color="#aa56d0"/>
    </linearGradient>
    <linearGradient id="linear-gradient-2" x1="12.25" y1="18.33" x2="143.25" y2="107.33" xlink:href="#linear-gradient"/>
    <linearGradient id="linear-gradient-3" x1="1" y1="34.9" x2="132" y2="123.9" xlink:href="#linear-gradient"/>
    <linearGradient id="linear-gradient-4" x1="17.72" y1="10.27" x2="148.72" y2="99.27" xlink:href="#linear-gradient"/>
    <linearGradient id="linear-gradient-5" x1="-10.03" y1="51.13" x2="120.97" y2="140.13" xlink:href="#linear-gradient"/>
    <linearGradient id="linear-gradient-6" x1="8.55" y1="23.78" x2="139.55" y2="112.78" xlink:href="#linear-gradient"/>
  </defs>
  <title>cat</title>
    <g id="icon-cat"> 
      <path class="cls-1" d="M109.82,39a3.28,3.28,0,0,0,4.11-2.24,35.66,35.66,0,0,1,5.29-10.66,34.13,34.13,0,0,1,6.58,20.21,3.31,3.31,0,0,0,6.62,0,41.55,41.55,0,0,0-10.74-27.69,3.31,3.31,0,0,0-2.47-1.1h0a3.31,3.31,0,0,0-2.47,1.11,43,43,0,0,0-9.16,16.26A3.31,3.31,0,0,0,109.82,39Z"/>
      <path class="cls-2" d="M49.09,39a3.31,3.31,0,0,0,2.24-4.11,43,43,0,0,0-9.16-16.26,3.31,3.31,0,0,0-2.47-1.11h0a3.31,3.31,0,0,0-2.47,1.1A41.55,41.55,0,0,0,26.48,46.35a3.31,3.31,0,1,0,6.62,0,34.13,34.13,0,0,1,6.58-20.21A35.66,35.66,0,0,1,45,36.8,3.29,3.29,0,0,0,49.09,39Z"/>
      <path class="cls-3" d="M46.35,72.83a6.62,6.62,0,1,1,13.24,0,3.31,3.31,0,1,0,6.62,0,13.24,13.24,0,1,0-26.48,0,3.31,3.31,0,1,0,6.62,0Z"/>
      <path class="cls-4" d="M96,76.14a3.31,3.31,0,0,0,3.31-3.31,6.62,6.62,0,1,1,13.24,0,3.31,3.31,0,0,0,6.62,0,13.24,13.24,0,1,0-26.48,0A3.31,3.31,0,0,0,96,76.14Z"/>
      <path class="cls-5" d="M66.79,104.46l8.4,11.24C70.28,120.59,63.38,120,59,113.93a3.31,3.31,0,0,0-5.36,3.89c6.64,9.16,18.24,10.38,25.85,3.09A16.63,16.63,0,0,0,91,125.8c5.46,0,10.53-2.84,14.27-8a3.31,3.31,0,0,0-5.36-3.89c-4.42,6.1-11.32,6.66-16.24,1.77L92.43,104a7.78,7.78,0,0,0-7-11.26h-12a7.74,7.74,0,0,0-6.62,3.69A7.89,7.89,0,0,0,66.79,104.46Zm5.66-4.59a1.13,1.13,0,0,1,1-.55h12a1.13,1.13,0,0,1,1,.55c.13.21.3.63.36.63l-7.37,9.86-7-9.36A1.13,1.13,0,0,1,72.46,99.87Z"/>
      <path class="cls-6" d="M2.26,85.9,7,87.48c-.15,1.74-.36,3.47-.36,5.22A57.65,57.65,0,0,0,8,105.37l-5.27,1.49a3.31,3.31,0,0,0,1.81,6.37l5.33-1.51c8.82,24.59,35,40.56,69.58,40.56s60.82-16,69.62-40.65l5.62,1.6a3.31,3.31,0,0,0,1.81-6.37l-5.58-1.58a57.68,57.68,0,0,0,1.36-12.59c0-1.75-.21-3.48-.36-5.22l4.72-1.57a3.31,3.31,0,0,0-2.09-6.28L151,80.82a62.63,62.63,0,0,0-7.4-19.58,54.8,54.8,0,0,0,2.1-14.89c0-18.22-9-34.89-24.6-45.76a3.31,3.31,0,0,0-3.79,0,58,58,0,0,0-21.42,27.6,79.93,79.93,0,0,0-32.81,0A58,58,0,0,0,41.62.6a3.31,3.31,0,0,0-3.79,0c-15.63,10.86-24.6,27.54-24.6,45.76a54.8,54.8,0,0,0,2.1,14.89,62.63,62.63,0,0,0-7.4,19.58l-3.59-1.2A3.31,3.31,0,1,0,2.26,85.9ZM21.75,63.46a3.3,3.3,0,0,0,.35-2.73,48.36,48.36,0,0,1-2.23-14.38c0-15.27,7.21-29.34,19.86-38.94a50.73,50.73,0,0,1,18,25.64,3.3,3.3,0,0,0,4,2.27,72.88,72.88,0,0,1,35.56,0,3.29,3.29,0,0,0,4-2.27,50.73,50.73,0,0,1,18-25.64C131.84,17,139,31.08,139,46.35a48.36,48.36,0,0,1-2.23,14.38,3.3,3.3,0,0,0,.35,2.73,56.07,56.07,0,0,1,7.49,19.47l-29.83,9.94a3.31,3.31,0,1,0,2.09,6.28l28.53-9.51c.06,1,.22,2,.22,3.06a50.19,50.19,0,0,1-1.17,10.76l-14.15-4a3.31,3.31,0,1,0-1.81,6.37l14.08,4c-8.09,21.75-31.81,35.86-63.17,35.86s-55-14.07-63.14-35.77l14.38-4.08a3.31,3.31,0,1,0-1.81-6.37l-14.47,4.11A50.2,50.2,0,0,1,13.24,92.7c0-1,.16-2,.22-3.06L42,99.15a3.31,3.31,0,0,0,2.09-6.28L14.26,82.92A56.07,56.07,0,0,1,21.75,63.46Z"/>
  </g>
</svg>
