<svg xmlns="http://www.w3.org/2000/svg" viewBox="0 0 29.01 29.01"><title>icon-pinterest</title><path class="cls-1" d="M14.54 0a14.5 14.5 0 1 0-.08 29 14.49 14.49 0 0 0 0-29zm1.62 18.83a2.79 2.79 0 0 1-2.38-1.21s-.57 2.24-.69 2.68a10.4 10.4 0 0 1-1.76 3.19.13.13 0 0 1-.23-.06 10.94 10.94 0 0 1 0-3.7l1.25-5.31a3.75 3.75 0 0 1-.31-1.54c0-1.44.84-2.52 1.88-2.52a1.3 1.3 0 0 1 1.31 1.46 20.91 20.91 0 0 1-.86 3.46 1.51 1.51 0 0 0 1.54 1.88c1.88 0 3.09-2.37 3.09-5.16 0-2.15-1.4-3.75-4-3.75a4.62 4.62 0 0 0-4.8 4.67 2.81 2.81 0 0 0 .64 1.91.47.47 0 0 1 .14.54l-.2.78a.34.34 0 0 1-.49.24c-1.36-.56-2-2-2-3.72 0-2.77 2.33-6.09 7-6.09 3.72 0 6.17 2.69 6.17 5.58-.04 3.84-2.17 6.68-5.3 6.68z"/></svg>