<svg class="c-icon c-icon--inline c-icon--printer" xmlns="http://www.w3.org/2000/svg" viewBox="0 0 12.68 11.39"><title>icon-printer</title><path class="cls-1 c-icon--printer" d="M12.14 2H10.6V.44a.44.44 0 0 0-.44-.44H2.47A.44.44 0 0 0 2 .44V2H.54a.54.54 0 0 0-.54.5v5a.54.54 0 0 0 .54.54H2V11a.44.44 0 0 0 .44.44h7.68a.44.44 0 0 0 .48-.44V8.06h1.55a.54.54 0 0 0 .54-.54v-5a.54.54 0 0 0-.55-.52zM1.22 3.63a.42.42 0 1 1 .42-.42.42.42 0 0 1-.42.42zm8.52 4.43v2a.44.44 0 0 1-.44.44H3.38a.44.44 0 0 1-.44-.5V6.39h6.8zm0-6.1h-6.8v-.64a.44.44 0 0 1 .44-.44H9.3a.44.44 0 0 1 .44.44z"/></svg>