<?xml version="1.0" encoding="UTF-8"?><!DOCTYPE svg PUBLIC "-//W3C//DTD SVG 1.1//EN" "http://www.w3.org/Graphics/SVG/1.1/DTD/svg11.dtd"><svg xmlns="http://www.w3.org/2000/svg" xmlns:xlink="http://www.w3.org/1999/xlink"><defs><style>.cls-1{fill:#b3b3b3}</style><style>#icon-cat .cls-1{fill:url(#linear-gradient)}#icon-cat .cls-2{fill:url(#linear-gradient-2)}#icon-cat .cls-3{fill:url(#linear-gradient-3)}#icon-cat .cls-4{fill:url(#linear-gradient-4)}#icon-cat .cls-5{fill:url(#linear-gradient-5)}#icon-cat .cls-6{fill:url(#linear-gradient-6)}</style><linearGradient id="linear-gradient" x1="40.03" y1="-22.56" x2="171.03" y2="66.44" gradientUnits="userSpaceOnUse"><stop offset="0" stop-color="#369cdc"/><stop offset="1" stop-color="#aa56d0"/></linearGradient><linearGradient id="linear-gradient-2" x1="12.25" y1="18.33" x2="143.25" y2="107.33" xlink:href="#linear-gradient"/><linearGradient id="linear-gradient-3" x1="1" y1="34.9" x2="132" y2="123.9" xlink:href="#linear-gradient"/><linearGradient id="linear-gradient-4" x1="17.72" y1="10.27" x2="148.72" y2="99.27" xlink:href="#linear-gradient"/><linearGradient id="linear-gradient-5" x1="-10.03" y1="51.13" x2="120.97" y2="140.13" xlink:href="#linear-gradient"/><linearGradient id="linear-gradient-6" x1="8.55" y1="23.78" x2="139.55" y2="112.78" xlink:href="#linear-gradient"/><style>#icon--dog .cls-1{fill:url(#linear-gradient)}#icon--dog .cls-2{fill:url(#linear-gradient-2)}#icon--dog .cls-3{fill:url(#linear-gradient-3)}#icon--dog .cls-4{fill:url(#linear-gradient-4)}</style><linearGradient id="linear-gradient" x1="-50.19" y1="6" x2="173.81" y2="136" gradientUnits="userSpaceOnUse"><stop offset="0" stop-color="#369cdc"/><stop offset="1" stop-color="#aa56d0"/></linearGradient><linearGradient id="linear-gradient-2" x1="-40.41" y1="-10.85" x2="183.59" y2="119.15" xlink:href="#linear-gradient"/><linearGradient id="linear-gradient-3" x1="-50.19" y1="6" x2="173.81" y2="136" xlink:href="#linear-gradient"/><linearGradient id="linear-gradient-4" x1="-35.98" y1="-18.48" x2="188.02" y2="111.52" xlink:href="#linear-gradient"/><style>.cls-1{fill:#b3b3b3}</style><style>.cls-1{fill:#2e2a25}.cls-2{fill:#0071ce}.cls-3{fill:#231f20}.cls-4{fill:#fff;fill-rule:evenodd}</style><style>#rabbit--icon .cls-1{fill:url(#linear-gradient)}#rabbit--icon .cls-2{fill:url(#linear-gradient-2)}#rabbit--icon .cls-3{fill:url(#linear-gradient-3)}#rabbit--icon .cls-4{fill:url(#linear-gradient-4)}</style><linearGradient id="linear-gradient" x1="-54.73" y1="45.13" x2="144.27" y2="114.13" gradientUnits="userSpaceOnUse"><stop offset="0" stop-color="#369cdc"/><stop offset="1" stop-color="#aa56d0"/></linearGradient><linearGradient id="linear-gradient-2" x1="-70.74" y1="91.31" x2="128.26" y2="160.31" xlink:href="#linear-gradient"/><linearGradient id="linear-gradient-3" x1="-63.35" y1="69.99" x2="135.65" y2="138.99" xlink:href="#linear-gradient"/><linearGradient id="linear-gradient-4" x1="-58.39" y1="55.68" x2="140.61" y2="124.68" xlink:href="#linear-gradient"/><style>.cls-1{fill:#b3b3b3}</style></defs><symbol id="icon--badge" viewBox="0 0 62.68 94.01"><title>icon-badge</title><g id="Layer_2" data-name="Layer 2"><g id="UI"><path class="cls-1" d="M15.67 58.36v33.69a2 2 0 0 0 3.23 1.49l12.44-10.66 12.43 10.66A2 2 0 0 0 47 92.05V58.36a31.29 31.29 0 1 0-47-27 31.11 31.11 0 0 0 15.67 27zM43.09 87.8l-10.48-9a2 2 0 0 0-2.55 0l-10.48 9V60.38l.3.11c.32.13.66.23 1 .35.73.26 1.47.51 2.22.71.47.13.94.24 1.42.35.65.14 1.3.26 2 .36.5.08 1 .16 1.5.21.89.1 1.79.14 2.69.16h1.37c.9 0 1.8-.07 2.69-.16.51-.05 1-.14 1.51-.22s1.29-.22 1.92-.36 1-.22 1.45-.36c.72-.2 1.43-.43 2.13-.68.36-.13.72-.24 1.07-.38l.29-.1zM31.34 3.92a27.41 27.41 0 1 1-6.59 54 25.87 25.87 0 0 1-6.21-2.41 27.39 27.39 0 0 1 12.8-51.59z"/><path class="cls-1" d="M18.51 48.65a2 2 0 0 0 2.88 2l9.95-5.5 9.95 5.5a1.94 1.94 0 0 0 .95.24 2 2 0 0 0 1.93-2.27l-1.93-11.75 8.12-8.33a2 2 0 0 0-1.11-3.3l-11.15-1.7-5-10.66a2 2 0 0 0-3.55 0l-5 10.66-11.15 1.7a2 2 0 0 0-1.11 3.3l8.12 8.33zm-.73-20.11l8.41-1.29a2 2 0 0 0 1.48-1.1l3.67-7.83L35 26.15a2 2 0 0 0 1.48 1.1l8.41 1.29-6.15 6.31a2 2 0 0 0-.53 1.68l1.43 8.77-7.37-4.07a2 2 0 0 0-1.89 0L23 45.3l1.43-8.77a2 2 0 0 0-.53-1.68z"/></g></g></symbol><symbol id="icon--cat-mask" viewBox="0 0 158.91 152.29"><path class="cls-1" d="M109.82 39a3.28 3.28 0 0 0 4.11-2.24 35.66 35.66 0 0 1 5.29-10.66 34.13 34.13 0 0 1 6.58 20.21 3.31 3.31 0 0 0 6.62 0 41.55 41.55 0 0 0-10.74-27.69 3.31 3.31 0 0 0-2.47-1.1 3.31 3.31 0 0 0-2.47 1.11 43 43 0 0 0-9.16 16.26 3.31 3.31 0 0 0 2.24 4.11z"/><path class="cls-2" d="M49.09 39a3.31 3.31 0 0 0 2.24-4.11 43 43 0 0 0-9.16-16.26 3.31 3.31 0 0 0-2.47-1.11 3.31 3.31 0 0 0-2.47 1.1 41.55 41.55 0 0 0-10.75 27.73 3.31 3.31 0 1 0 6.62 0 34.13 34.13 0 0 1 6.58-20.21A35.66 35.66 0 0 1 45 36.8a3.29 3.29 0 0 0 4.09 2.2z"/><path class="cls-3" d="M46.35 72.83a6.62 6.62 0 1 1 13.24 0 3.31 3.31 0 1 0 6.62 0 13.24 13.24 0 1 0-26.48 0 3.31 3.31 0 1 0 6.62 0z"/><path class="cls-4" d="M96 76.14a3.31 3.31 0 0 0 3.31-3.31 6.62 6.62 0 1 1 13.24 0 3.31 3.31 0 0 0 6.62 0 13.24 13.24 0 1 0-26.48 0A3.31 3.31 0 0 0 96 76.14z"/><path class="cls-5" d="M66.79 104.46l8.4 11.24c-4.91 4.89-11.81 4.3-16.19-1.77a3.31 3.31 0 0 0-5.36 3.89c6.64 9.16 18.24 10.38 25.85 3.09A16.63 16.63 0 0 0 91 125.8c5.46 0 10.53-2.84 14.27-8a3.31 3.31 0 0 0-5.36-3.89c-4.42 6.1-11.32 6.66-16.24 1.77L92.43 104a7.78 7.78 0 0 0-7-11.26h-12a7.74 7.74 0 0 0-6.62 3.69 7.89 7.89 0 0 0-.02 8.03zm5.66-4.59a1.13 1.13 0 0 1 1-.55h12a1.13 1.13 0 0 1 1 .55c.13.21.3.63.36.63l-7.37 9.86-7-9.36a1.13 1.13 0 0 1 .02-1.13z"/><path class="cls-6" d="M2.26 85.9L7 87.48c-.15 1.74-.36 3.47-.36 5.22A57.65 57.65 0 0 0 8 105.37l-5.27 1.49a3.31 3.31 0 0 0 1.81 6.37l5.33-1.51c8.82 24.59 35 40.56 69.58 40.56s60.82-16 69.62-40.65l5.62 1.6a3.31 3.31 0 0 0 1.81-6.37l-5.58-1.58a57.68 57.68 0 0 0 1.36-12.59c0-1.75-.21-3.48-.36-5.22l4.72-1.57a3.31 3.31 0 0 0-2.09-6.28l-3.55 1.2a62.63 62.63 0 0 0-7.4-19.58 54.8 54.8 0 0 0 2.1-14.89c0-18.22-9-34.89-24.6-45.76a3.31 3.31 0 0 0-3.79 0 58 58 0 0 0-21.42 27.6 79.93 79.93 0 0 0-32.81 0A58 58 0 0 0 41.62.6a3.31 3.31 0 0 0-3.79 0c-15.63 10.86-24.6 27.54-24.6 45.76a54.8 54.8 0 0 0 2.1 14.89 62.63 62.63 0 0 0-7.4 19.58l-3.59-1.2a3.31 3.31 0 1 0-2.08 6.27zm19.49-22.44a3.3 3.3 0 0 0 .35-2.73 48.36 48.36 0 0 1-2.23-14.38c0-15.27 7.21-29.34 19.86-38.94a50.73 50.73 0 0 1 18 25.64 3.3 3.3 0 0 0 4 2.27 72.88 72.88 0 0 1 35.56 0 3.29 3.29 0 0 0 4-2.27 50.73 50.73 0 0 1 18-25.64C131.84 17 139 31.08 139 46.35a48.36 48.36 0 0 1-2.23 14.38 3.3 3.3 0 0 0 .35 2.73 56.07 56.07 0 0 1 7.49 19.47l-29.83 9.94a3.31 3.31 0 1 0 2.09 6.28l28.53-9.51c.06 1 .22 2 .22 3.06a50.19 50.19 0 0 1-1.17 10.76l-14.15-4a3.31 3.31 0 1 0-1.81 6.37l14.08 4c-8.09 21.75-31.81 35.86-63.17 35.86s-55-14.07-63.14-35.77l14.38-4.08a3.31 3.31 0 1 0-1.81-6.37l-14.47 4.11a50.2 50.2 0 0 1-1.12-10.88c0-1 .16-2 .22-3.06L42 99.15a3.31 3.31 0 0 0 2.09-6.28l-29.83-9.95a56.07 56.07 0 0 1 7.49-19.46z"/></symbol><symbol id="icon--cat" viewBox="0 0 158.91 152.29"><title>cat</title><g id="icon-cat"><path class="cls-1" d="M109.82 39a3.28 3.28 0 0 0 4.11-2.24 35.66 35.66 0 0 1 5.29-10.66 34.13 34.13 0 0 1 6.58 20.21 3.31 3.31 0 0 0 6.62 0 41.55 41.55 0 0 0-10.74-27.69 3.31 3.31 0 0 0-2.47-1.1 3.31 3.31 0 0 0-2.47 1.11 43 43 0 0 0-9.16 16.26 3.31 3.31 0 0 0 2.24 4.11z"/><path class="cls-2" d="M49.09 39a3.31 3.31 0 0 0 2.24-4.11 43 43 0 0 0-9.16-16.26 3.31 3.31 0 0 0-2.47-1.11 3.31 3.31 0 0 0-2.47 1.1 41.55 41.55 0 0 0-10.75 27.73 3.31 3.31 0 1 0 6.62 0 34.13 34.13 0 0 1 6.58-20.21A35.66 35.66 0 0 1 45 36.8a3.29 3.29 0 0 0 4.09 2.2z"/><path class="cls-3" d="M46.35 72.83a6.62 6.62 0 1 1 13.24 0 3.31 3.31 0 1 0 6.62 0 13.24 13.24 0 1 0-26.48 0 3.31 3.31 0 1 0 6.62 0z"/><path class="cls-4" d="M96 76.14a3.31 3.31 0 0 0 3.31-3.31 6.62 6.62 0 1 1 13.24 0 3.31 3.31 0 0 0 6.62 0 13.24 13.24 0 1 0-26.48 0A3.31 3.31 0 0 0 96 76.14z"/><path class="cls-5" d="M66.79 104.46l8.4 11.24c-4.91 4.89-11.81 4.3-16.19-1.77a3.31 3.31 0 0 0-5.36 3.89c6.64 9.16 18.24 10.38 25.85 3.09A16.63 16.63 0 0 0 91 125.8c5.46 0 10.53-2.84 14.27-8a3.31 3.31 0 0 0-5.36-3.89c-4.42 6.1-11.32 6.66-16.24 1.77L92.43 104a7.78 7.78 0 0 0-7-11.26h-12a7.74 7.74 0 0 0-6.62 3.69 7.89 7.89 0 0 0-.02 8.03zm5.66-4.59a1.13 1.13 0 0 1 1-.55h12a1.13 1.13 0 0 1 1 .55c.13.21.3.63.36.63l-7.37 9.86-7-9.36a1.13 1.13 0 0 1 .02-1.13z"/><path class="cls-6" d="M2.26 85.9L7 87.48c-.15 1.74-.36 3.47-.36 5.22A57.65 57.65 0 0 0 8 105.37l-5.27 1.49a3.31 3.31 0 0 0 1.81 6.37l5.33-1.51c8.82 24.59 35 40.56 69.58 40.56s60.82-16 69.62-40.65l5.62 1.6a3.31 3.31 0 0 0 1.81-6.37l-5.58-1.58a57.68 57.68 0 0 0 1.36-12.59c0-1.75-.21-3.48-.36-5.22l4.72-1.57a3.31 3.31 0 0 0-2.09-6.28l-3.55 1.2a62.63 62.63 0 0 0-7.4-19.58 54.8 54.8 0 0 0 2.1-14.89c0-18.22-9-34.89-24.6-45.76a3.31 3.31 0 0 0-3.79 0 58 58 0 0 0-21.42 27.6 79.93 79.93 0 0 0-32.81 0A58 58 0 0 0 41.62.6a3.31 3.31 0 0 0-3.79 0c-15.63 10.86-24.6 27.54-24.6 45.76a54.8 54.8 0 0 0 2.1 14.89 62.63 62.63 0 0 0-7.4 19.58l-3.59-1.2a3.31 3.31 0 1 0-2.08 6.27zm19.49-22.44a3.3 3.3 0 0 0 .35-2.73 48.36 48.36 0 0 1-2.23-14.38c0-15.27 7.21-29.34 19.86-38.94a50.73 50.73 0 0 1 18 25.64 3.3 3.3 0 0 0 4 2.27 72.88 72.88 0 0 1 35.56 0 3.29 3.29 0 0 0 4-2.27 50.73 50.73 0 0 1 18-25.64C131.84 17 139 31.08 139 46.35a48.36 48.36 0 0 1-2.23 14.38 3.3 3.3 0 0 0 .35 2.73 56.07 56.07 0 0 1 7.49 19.47l-29.83 9.94a3.31 3.31 0 1 0 2.09 6.28l28.53-9.51c.06 1 .22 2 .22 3.06a50.19 50.19 0 0 1-1.17 10.76l-14.15-4a3.31 3.31 0 1 0-1.81 6.37l14.08 4c-8.09 21.75-31.81 35.86-63.17 35.86s-55-14.07-63.14-35.77l14.38-4.08a3.31 3.31 0 1 0-1.81-6.37l-14.47 4.11a50.2 50.2 0 0 1-1.12-10.88c0-1 .16-2 .22-3.06L42 99.15a3.31 3.31 0 0 0 2.09-6.28l-29.83-9.95a56.07 56.07 0 0 1 7.49-19.46z"/></g></symbol><symbol id="icon--dog-mask" viewBox="0 0 197.31 150.34"><path class="cls-1" d="M70.23 53.1A22.78 22.78 0 1 0 93 75.89 22.81 22.81 0 0 0 70.23 53.1zm0 38.57A15.78 15.78 0 1 1 86 75.89a15.8 15.8 0 0 1-15.77 15.78z"/><path class="cls-2" d="M195.85 35.3c-5-11.64-30.19-23.84-50.48-32a7.58 7.58 0 0 0-10.3 5.7c-10.43-5.87-22.84-9-36.45-9s-26 3.07-36.39 8.92a7.59 7.59 0 0 0-10.29-5.64C31.66 11.46 6.43 23.65 1.46 35.3s3.67 38.3 11.79 58.6a7.56 7.56 0 0 0 7 4.77h.09a7.56 7.56 0 0 0 7-4.61l5-11.81C35.4 112.94 47.1 143.47 72.58 150a12.48 12.48 0 0 0 3.08.34c7.42 0 18.37-4.67 23-6.79 4.66 2.29 17.61 8.12 25.94 6.49a37.66 37.66 0 0 0 20-11c5-5.13 9.22-11.95 12.53-20.26 4.71-11.82 7-24.89 8-36.43l5 11.72a7.56 7.56 0 0 0 7 4.6h.09a7.56 7.56 0 0 0 7-4.77c7.96-20.31 16.6-46.96 11.63-58.6zm-175 56a.53.53 0 0 1-.53.35.53.53 0 0 1-.53-.37C9.28 65.11 4.85 45.2 7.9 38S28.4 20.32 54.56 9.77a.58.58 0 0 1 .75.77zm77.8 33.22l-7-9.36a1.16 1.16 0 0 1 1-1.68h12a1.13 1.13 0 0 1 1 .55c.13.21.3.63.36.63zm24.54 18.64c-5.44 1.06-15.74-3.13-21-5.68v-6.57l9.48-12.79a7.78 7.78 0 0 0-7-11.26h-12a7.74 7.74 0 0 0-6.67 3.71 7.89 7.89 0 0 0 0 8.07l9.15 12.28v6.5c-7.15 3.22-17.15 6.75-20.87 5.8-11.68-3-20.82-12.37-27.18-27.88-5.29-12.9-8.34-29.76-8.62-47.54L59.2 19.26C69.67 11.23 83.28 7 98.62 7s29 4.26 39.52 12.33l20.63 48.33c-.77 63.75-27.42 73.92-35.6 75.51zm54.37-51.86a.53.53 0 0 1-.53.37.53.53 0 0 1-.53-.35l-10.7-25.05L144 15.23l-2-4.69a.53.53 0 0 1 .12-.64.54.54 0 0 1 .4-.19.62.62 0 0 1 .24.05c26.16 10.56 43.6 21.13 46.65 28.24S188 65.11 177.56 91.3z"/><circle class="cls-3" cx="70.23" cy="75.89" r="6.7"/><circle class="cls-4" cx="126.62" cy="75.89" r="6.7"/></symbol><symbol id="icon--dog" viewBox="0 0 197.31 150.34"><title>dog</title><g id="icon-dog"><path class="cls-1" d="M70.23 53.1A22.78 22.78 0 1 0 93 75.89 22.81 22.81 0 0 0 70.23 53.1zm0 38.57A15.78 15.78 0 1 1 86 75.89a15.8 15.8 0 0 1-15.77 15.78z"/><path class="cls-2" d="M195.85 35.3c-5-11.64-30.19-23.84-50.48-32a7.58 7.58 0 0 0-10.3 5.7c-10.43-5.87-22.84-9-36.45-9s-26 3.07-36.39 8.92a7.59 7.59 0 0 0-10.29-5.64C31.66 11.46 6.43 23.65 1.46 35.3s3.67 38.3 11.79 58.6a7.56 7.56 0 0 0 7 4.77h.09a7.56 7.56 0 0 0 7-4.61l5-11.81C35.4 112.94 47.1 143.47 72.58 150a12.48 12.48 0 0 0 3.08.34c7.42 0 18.37-4.67 23-6.79 4.66 2.29 17.61 8.12 25.94 6.49a37.66 37.66 0 0 0 20-11c5-5.13 9.22-11.95 12.53-20.26 4.71-11.82 7-24.89 8-36.43l5 11.72a7.56 7.56 0 0 0 7 4.6h.09a7.56 7.56 0 0 0 7-4.77c7.96-20.31 16.6-46.96 11.63-58.6zm-175 56a.53.53 0 0 1-.53.35.53.53 0 0 1-.53-.37C9.28 65.11 4.85 45.2 7.9 38S28.4 20.32 54.56 9.77a.58.58 0 0 1 .75.77zm77.8 33.22l-7-9.36a1.16 1.16 0 0 1 1-1.68h12a1.13 1.13 0 0 1 1 .55c.13.21.3.63.36.63zm24.54 18.64c-5.44 1.06-15.74-3.13-21-5.68v-6.57l9.48-12.79a7.78 7.78 0 0 0-7-11.26h-12a7.74 7.74 0 0 0-6.67 3.71 7.89 7.89 0 0 0 0 8.07l9.15 12.28v6.5c-7.15 3.22-17.15 6.75-20.87 5.8-11.68-3-20.82-12.37-27.18-27.88-5.29-12.9-8.34-29.76-8.62-47.54L59.2 19.26C69.67 11.23 83.28 7 98.62 7s29 4.26 39.52 12.33l20.63 48.33c-.77 63.75-27.42 73.92-35.6 75.51zm54.37-51.86a.53.53 0 0 1-.53.37.53.53 0 0 1-.53-.35l-10.7-25.05L144 15.23l-2-4.69a.53.53 0 0 1 .12-.64.54.54 0 0 1 .4-.19.62.62 0 0 1 .24.05c26.16 10.56 43.6 21.13 46.65 28.24S188 65.11 177.56 91.3z"/><circle class="cls-3" cx="70.23" cy="75.89" r="6.7"/><circle class="cls-4" cx="126.62" cy="75.89" r="6.7"/></g></symbol><symbol id="icon--heart" viewBox="0 0 101.27 84.39"><title>icon-heart</title><g id="Layer_2" data-name="Layer 2"><path class="cls-1" d="M74.9 0C64 0 54.66 7.24 50.64 17.53 46.61 7.24 37.25 0 26.37 0 11.83 0 0 12.94 0 28.84c0 19.09 10.94 26 23.6 34C31.66 67.93 40.8 73.7 49 83.63a2.11 2.11 0 0 0 3.25 0c8.21-9.93 17.35-15.7 25.41-20.79 12.67-8 23.6-14.91 23.6-34C101.27 12.94 89.44 0 74.9 0zm.52 59.27C67.61 64.2 58.82 69.75 50.64 79c-8.19-9.29-17-14.83-24.78-19.77C13.3 51.33 4.22 45.6 4.22 28.84c0-13.57 9.94-24.62 22.15-24.62s22.15 11 22.15 24.62a2.11 2.11 0 0 0 4.22 0c0-13.57 9.94-24.62 22.15-24.62s22.15 11 22.15 24.62C97.05 45.6 88 51.33 75.42 59.27z" id="UI"/></g></symbol><symbol id="icon--pns-logo" viewBox="0 0 535.14 103.06"><title>pets-in-stitches-logo</title><path class="cls-1" d="M139 85.78h-9.75v-50h13.27c10.48 0 17.31 4.18 17.31 15.52 0 10.61-5.77 15.79-16 15.79H139zM139 59h2c5.77 0 8.89-1.26 8.89-7.76s-3.71-7.36-9.16-7.36H139zM172.81 71c0 4.11 1.59 8.76 6.43 8.76 3.05 0 5-1.86 6.24-4.45L194 76.7c-2.25 6.5-8 10.15-14.79 10.15-10.08 0-16.25-7.16-16.25-17s5.24-17.65 15.79-17.65 15.49 7.8 15.49 17.66V71zm12.67-5.77c-.47-3.32-2.59-6.56-6.17-6.56s-5.77 3.18-6.24 6.56zM210.29 85.78H201V61h-3.19v-7.79H201v-11h9.29v11H216V61h-5.7zM236.09 60.91a7.37 7.37 0 0 0-4.91-2.25 3 3 0 0 0-3.05 2.78c0 2.39 3.39 3 6.7 4.51s6.7 3.72 6.7 9.35c0 7.23-5.83 11.54-12.67 11.54a15 15 0 0 1-11.48-5.43l4.25-5.51c1.79 2 4.18 3.78 6.9 3.78a3.5 3.5 0 0 0 3.71-3.52c0-2.85-3.25-3.52-6.5-4.91s-6.5-3.31-6.5-8.56c0-6.1 4.24-10.54 10.35-10.54 3.45 0 7.83 1.06 10.48 3.38z"/><path class="cls-2" d="M258.5 39.55A5.51 5.51 0 1 1 253 34a5.49 5.49 0 0 1 5.5 5.55zm-.86 46.23h-9.29V53.21h9.29zM275.28 56.2h.13c1.92-2.92 5.17-4 8.49-4 8.76 0 11.28 6.17 11.28 13.73v19.9h-9.28V68.54c0-3.92.2-9-5-9-5.51 0-5.57 6.17-5.57 10.09v16.15H266V53.21h9.29z"/><path class="cls-1" d="M326.95 46.78a9 9 0 0 0-7.49-4.11c-3.12 0-6.11 2.39-6.11 5.64 0 8.43 19.84 4.91 19.84 21.69 0 10-6.24 17.12-16.45 17.12-6.9 0-11.94-4-15.39-9.75l6.3-6.17c1.33 3.85 4.84 7.29 9 7.29 4 0 6.43-3.38 6.43-7.23 0-5.17-4.78-6.63-8.69-8.16-6.43-2.65-11.14-5.91-11.14-13.66 0-8.29 6.17-15 14.59-15 4.45 0 10.61 2.19 13.67 5.57zM349.76 85.78h-9.29V61h-3.18v-7.79h3.18v-11h9.29v11h5.71V61h-5.71zM369.46 39.55A5.5 5.5 0 1 1 364 34a5.49 5.49 0 0 1 5.46 5.55zm-.86 46.23h-9.29V53.21h9.29zM387.37 85.78h-9.29V61h-3.19v-7.79h3.19v-11h9.29v11h5.7V61h-5.7zM418.61 63.16c-2-2-4-3.19-6.84-3.19-5.24 0-8.23 4.91-8.23 9.69 0 5.11 3.25 9.35 8.56 9.35a8.86 8.86 0 0 0 6.5-3.11v9a16.19 16.19 0 0 1-8 2c-9.62 0-16.45-7.89-16.45-17.25 0-9.69 7.1-17.45 16.91-17.45a14.6 14.6 0 0 1 7.57 2.06zM435 29.53v26.4h.13c1.92-2.65 5.18-3.78 8.49-3.78 8.76 0 11.27 6.17 11.27 13.73v19.9h-9.29V68.54c0-3.92.2-9-5-9-5.51 0-5.57 6.17-5.57 10.09v16.15h-9.33V29.53zM470.34 71c0 4.11 1.59 8.76 6.43 8.76 3 0 5-1.86 6.23-4.45l8.56 1.4c-2.26 6.5-8 10.15-14.79 10.15-10.09 0-16.26-7.16-16.26-17s5.24-17.65 15.78-17.65 15.47 7.79 15.47 17.65V71zM483 65.22c-.46-3.32-2.58-6.56-6.16-6.56s-5.77 3.18-6.24 6.56zM514.11 60.91a7.38 7.38 0 0 0-4.91-2.25 3 3 0 0 0-3.05 2.78c0 2.39 3.39 3 6.7 4.51s6.7 3.72 6.7 9.35c0 7.23-5.84 11.54-12.67 11.54a15 15 0 0 1-11.48-5.43l4.25-5.51c1.78 2 4.18 3.78 6.89 3.78a3.51 3.51 0 0 0 3.72-3.52c0-2.85-3.25-3.52-6.5-4.91s-6.5-3.31-6.5-8.56c0-6.1 4.25-10.54 10.35-10.54 3.45 0 7.83 1.06 10.48 3.38z"/><path class="cls-3" d="M530 76.72a5.06 5.06 0 1 1-5.23 5 5.1 5.1 0 0 1 5.2-5zm-.06 1a4 4 0 0 0 .06 8.05 4 4 0 0 0 0-8.05zm-.77 6.63H528v-5a10.08 10.08 0 0 1 1.94-.18 2.84 2.84 0 0 1 1.75.4 1.37 1.37 0 0 1 .5 1.08 1.3 1.3 0 0 1-1.05 1.19v.06a1.44 1.44 0 0 1 .92 1.23 3.15 3.15 0 0 0 .37 1.23h-1.26a4.25 4.25 0 0 1-.4-1.19c-.09-.56-.4-.81-1-.81h-.56zm0-2.83h.55c.64 0 1.17-.21 1.17-.74s-.34-.77-1.08-.77a2.75 2.75 0 0 0-.65.06z"/><g><path class="cls-1" d="M68.4 17.77c-3.49-4.93-7.4-8.25-9.22-7.93a46.21 46.21 0 0 0-8-5.33 42.42 42.42 0 0 0-31.25-2.7 29.32 29.32 0 0 0-15.66 11.3C.41 19-.69 26.45.4 33.47 2.79 48 13.19 57.78 21.62 65.32c8.85 7.49 16.52 14.22 23.1 20C57.84 96.69 66.15 103.56 66.63 103s-7-8.29-19.5-20.38c-6.21-6-13.86-13.23-22.4-20.79C16.54 54.27 7.33 45 5.39 32.71a22.78 22.78 0 0 1 16-26.48 39.93 39.93 0 0 1 28.24 1.51 44.84 44.84 0 0 1 8.8 5.26 28.46 28.46 0 0 0 4.44 8.69c3.81 5.37 8.14 8.85 9.67 7.77s-.33-6.32-4.14-11.69zM70.91 27c-.82.58-3.49-1.77-6-5.27s-3.82-6.79-3-7.37 3.49 1.78 6 5.27 3.83 6.79 3 7.37z"/><path class="cls-1" d="M72.85 99.65h-.07c-4.15-1.6-5.92-4-5.91-6.72C67 85.27 80 75.88 84 72.38c12.75-10.56 34.7-24.5 34.64-42.86q0-1.11-.1-2.22c-.54-6.46-4.32-13.3-10.02-16.56A23.64 23.64 0 0 0 96.59 7.4c-10 0-19.29 6.69-28.47 12.59-3.37 2.16-6.31 3.86-10.08 3.86a13.86 13.86 0 0 1-2.79-.29c-2.33-.51-7.22-1.69-7.34-5.21a3.8 3.8 0 0 1 .12-.91c.53-2.08 2.43-2.85 4.3-2.84a8.9 8.9 0 0 1 5.3 1.77l-.54.65a8.13 8.13 0 0 0-4.75-1.57c-1.71 0-3.07.6-3.48 2.21a2.78 2.78 0 0 0-.09.7c-.12 2.52 4.33 4 6.67 4.39A13.41 13.41 0 0 0 58 23c3.5 0 6.26-1.57 9.63-3.73 9.19-5.85 18.55-12.7 28.96-12.7A24.4 24.4 0 0 1 108.94 10c6 3.43 9.83 10.49 10.47 17.2q.11 1.16.11 2.31c-.05 19.07-22.32 33-34.94 43.51-4.1 3.44-17 13.1-16.87 19.88 0 2.3 1.38 4.34 5.34 5.93a14.9 14.9 0 0 0 2.46.2 13.12 13.12 0 0 0 5.25-1l.34.77a13.87 13.87 0 0 1-5.59 1.09 14.86 14.86 0 0 1-2.66-.22z"/><path class="cls-2" d="M55.31 13.41S45.76 5 28.35 7.23C19.15 8.42 10.87 14 8.1 23.1c-3 9.77 3.29 20.74 9.58 27.93l44.92 43.8c-1.54-1.5 3.58-8.69 4.32-9.72 6.33-8.82 14.72-15.54 23.46-21.82 7.87-5.65 17.17-12 22-20.68 2.07-3.72 3.77-7.11 4.21-12a25.13 25.13 0 0 0-2.5-12.08 17.8 17.8 0 0 0-10.39-8.32 26 26 0 0 0-12.79.33C85.4 12.19 79.81 16 75 19l-2.25 1.41 2 5.61s.84 3.93-1.12 5.05a6.45 6.45 0 0 1-5.62-1.4l-4.84-4.47-2.58.43C55.41 26.49 46.76 25 45.2 19c0 0-1.4-3.65 3.09-5.89 0 .02 2.8-1.67 7.02.3z"/><path class="cls-4" d="M66.26 33.74A3.09 3.09 0 0 1 67 36c0 2.67-4 6.57-7.4 6.77-2.7.15-5.56-2.84-4-5.67 1-1.77 3.88-3.47 6.32-4.27 1.67-.52 3.08-.74 4.34.91zM81.19 49.22c1.38 1.71.81 3.5-.3 5-2.06 2.78-8.21 5-11.36 3.41a3.55 3.55 0 0 1-1.41-4.49c1.14-1.95 4.26-4 7.06-4.65 2.64-.59 4.13-.95 6.01.73zM77.68 38.84c2.36 2.8-.32 5.85-3.09 7.3-2.58 1.34-6.22 2.32-8.06 1.44a4.57 4.57 0 0 1-2.25-3.16 6 6 0 0 1 .8-2.13 14 14 0 0 1 6.13-4.18c2.17-.73 5.13-.86 6.47.73zM60.58 46.67a10.82 10.82 0 0 1 1.82.75 7.73 7.73 0 0 1 3.54 8.3c-.5 2-2.09 3.14-2.94 5.26-1 2.56-.61 4.62-1.52 6.75-1.81 4.29-8 4.65-10.5.23-2.09-3.7-1.77-7.85-4.16-11.69-1.78-2.86-4.2-3.43-5.06-7a7.12 7.12 0 0 1 .81-5.14c1.6-2.63 5.59-3.36 8.24-2 1.42.74 2.31 2.13 3.81 2.78 1.88.88 3.99 1.09 5.96 1.76zM64.42 65a3.52 3.52 0 0 1 .58-1.83c1.76-2.9 6.6-4.12 9.76-3.38A3.72 3.72 0 0 1 76 66.1a13.86 13.86 0 0 1-6 2.38c-2.42.35-5.55-1.08-5.58-3.48z"/></g></symbol><symbol id="icon--rabbit-mask" viewBox="0 0 138.46 185.04"><path class="cls-1" d="M65.84 185c-5.21-.84-10.52-1.28-15.6-2.6-19.47-5.06-34.84-15.75-44.16-34a55.81 55.81 0 0 1 10.2-64.6 91.55 91.55 0 0 1 9.25-8c1.52-1.18 1.94-2.12 1.32-4-2.85-8.5-5.78-17-8.27-25.59s-4-17.18-2.76-26.1c.79-5.86 2.76-11.16 7-15.47A18.53 18.53 0 0 1 31.63 0h2.89a45.93 45.93 0 0 1 6.18 2.49 26.24 26.24 0 0 1 10.77 12.57c4.69 10.53 6.27 21.77 7.53 33.09.51 4.66 1 9.32 1.55 13.88H77.9c.36-3.24.59-6.43 1.08-9.58 1.39-9 2.36-18.11 4.45-27 2.72-11.55 7.46-22 20.48-25.49h2.89c10.73 2.8 14.63 10.85 15.83 20.84 1.4 11.61-1.69 22.57-5.15 33.45q-2.8 8.81-5.91 17.52c-.65 1.83-.23 2.8 1.34 3.94 11.62 8.41 20 19.29 23.56 33.28 5.21 20.35.1 38.32-14 53.57-12.59 13.58-28.53 20.44-46.82 21.98-1 .09-2 .33-3.07.5zm3.37-7.47c18.35-.39 34.54-6.12 47.39-19.56 11.92-12.45 16.88-27.29 13.39-44.4-3-14.82-11.85-25.7-24.26-33.9-3-1.95-3.36-2.85-2.29-6.19 2.16-6.71 4.42-13.39 6.6-20.09 3.15-9.71 6-19.48 5.52-29.85-.26-5.05-1.38-9.87-5.13-13.63-2.84-2.83-5.71-3.17-9.13-1a18.59 18.59 0 0 0-7.65 9.35c-1.67 4.4-3.47 8.88-4.19 13.49-1.79 11.39-3 22.86-4.42 34.32-.35 2.87-1.83 4.54-4.45 4.11a68.87 68.87 0 0 0-22.75 0 3.62 3.62 0 0 1-4.38-3.4c-.53-5.18-1-10.38-1.5-15.56-1-9.09-2.06-18.16-4.84-26.92-1.61-5.09-3.62-10-7.68-13.68-5-4.59-10.33-4.05-13.43 2a30.78 30.78 0 0 0-3 11c-.76 8.09 1.14 16 3.52 23.64 2.74 8.88 5.74 17.67 8.58 26.52 1 3.05.47 4-2.15 5.84a98.17 98.17 0 0 0-8.56 6.62c-21.24 19.11-22.76 50.2-3.37 71C34 171.1 50.41 177.18 69.21 177.57z"/><path class="cls-2" d="M69 149.63l-1.16 1c-6.11 5.13-13 4.52-18.14-1.68a27.57 27.57 0 0 1-3-4.61 3.52 3.52 0 0 1 1.3-4.84c1.79-1.07 3.71-.57 5 1.25a29.62 29.62 0 0 0 3.49 4.53 4.89 4.89 0 0 0 7.76-1.87 2.52 2.52 0 0 0-.47-1.91c-1.47-2.2-3-4.33-4.57-6.49a6.94 6.94 0 0 1-.62-7.69 6.86 6.86 0 0 1 6.46-3.82h7.94a7.2 7.2 0 0 1 6 11.55c-1.26 1.76-2.53 3.51-3.74 5.31-.83 1.23-2.37 2.29-.57 4.07 2.17 2.13 4.28 3 6.11 1.53a24.25 24.25 0 0 0 4.2-4.83c1.47-2 3.2-2.76 5.09-1.7 1.65.93 2.55 2.47 1.79 4.23-2 4.57-5 8.27-9.9 9.87-4.19 1.36-7.88.06-11.17-2.64-.49-.41-1-.81-1.49-1.21.07-.05-.03-.03-.31-.05zm3.77-18.52h-7.15l3.62 5.09z"/><path class="cls-3" d="M46.2 100.37a7.57 7.57 0 1 1-7.69 7.39 7.74 7.74 0 0 1 7.69-7.39z"/><path class="cls-4" d="M99.91 108a7.57 7.57 0 1 1-7.41-7.67 7.74 7.74 0 0 1 7.41 7.67z"/></symbol><symbol id="icon--rabbit" viewBox="0 0 138.46 185.04"><title>rabbit</title><g id="rabbit-icon"><path class="cls-1" d="M65.84 185c-5.21-.84-10.52-1.28-15.6-2.6-19.47-5.06-34.84-15.75-44.16-34a55.81 55.81 0 0 1 10.2-64.6 91.55 91.55 0 0 1 9.25-8c1.52-1.18 1.94-2.12 1.32-4-2.85-8.5-5.78-17-8.27-25.59s-4-17.18-2.76-26.1c.79-5.86 2.76-11.16 7-15.47A18.53 18.53 0 0 1 31.63 0h2.89a45.93 45.93 0 0 1 6.18 2.49 26.24 26.24 0 0 1 10.77 12.57c4.69 10.53 6.27 21.77 7.53 33.09.51 4.66 1 9.32 1.55 13.88H77.9c.36-3.24.59-6.43 1.08-9.58 1.39-9 2.36-18.11 4.45-27 2.72-11.55 7.46-22 20.48-25.49h2.89c10.73 2.8 14.63 10.85 15.83 20.84 1.4 11.61-1.69 22.57-5.15 33.45q-2.8 8.81-5.91 17.52c-.65 1.83-.23 2.8 1.34 3.94 11.62 8.41 20 19.29 23.56 33.28 5.21 20.35.1 38.32-14 53.57-12.59 13.58-28.53 20.44-46.82 21.98-1 .09-2 .33-3.07.5zm3.37-7.47c18.35-.39 34.54-6.12 47.39-19.56 11.92-12.45 16.88-27.29 13.39-44.4-3-14.82-11.85-25.7-24.26-33.9-3-1.95-3.36-2.85-2.29-6.19 2.16-6.71 4.42-13.39 6.6-20.09 3.15-9.71 6-19.48 5.52-29.85-.26-5.05-1.38-9.87-5.13-13.63-2.84-2.83-5.71-3.17-9.13-1a18.59 18.59 0 0 0-7.65 9.35c-1.67 4.4-3.47 8.88-4.19 13.49-1.79 11.39-3 22.86-4.42 34.32-.35 2.87-1.83 4.54-4.45 4.11a68.87 68.87 0 0 0-22.75 0 3.62 3.62 0 0 1-4.38-3.4c-.53-5.18-1-10.38-1.5-15.56-1-9.09-2.06-18.16-4.84-26.92-1.61-5.09-3.62-10-7.68-13.68-5-4.59-10.33-4.05-13.43 2a30.78 30.78 0 0 0-3 11c-.76 8.09 1.14 16 3.52 23.64 2.74 8.88 5.74 17.67 8.58 26.52 1 3.05.47 4-2.15 5.84a98.17 98.17 0 0 0-8.56 6.62c-21.24 19.11-22.76 50.2-3.37 71C34 171.1 50.41 177.18 69.21 177.57z"/><path class="cls-2" d="M69 149.63l-1.16 1c-6.11 5.13-13 4.52-18.14-1.68a27.57 27.57 0 0 1-3-4.61 3.52 3.52 0 0 1 1.3-4.84c1.79-1.07 3.71-.57 5 1.25a29.62 29.62 0 0 0 3.49 4.53 4.89 4.89 0 0 0 7.76-1.87 2.52 2.52 0 0 0-.47-1.91c-1.47-2.2-3-4.33-4.57-6.49a6.94 6.94 0 0 1-.62-7.69 6.86 6.86 0 0 1 6.46-3.82h7.94a7.2 7.2 0 0 1 6 11.55c-1.26 1.76-2.53 3.51-3.74 5.31-.83 1.23-2.37 2.29-.57 4.07 2.17 2.13 4.28 3 6.11 1.53a24.25 24.25 0 0 0 4.2-4.83c1.47-2 3.2-2.76 5.09-1.7 1.65.93 2.55 2.47 1.79 4.23-2 4.57-5 8.27-9.9 9.87-4.19 1.36-7.88.06-11.17-2.64-.49-.41-1-.81-1.49-1.21.07-.05-.03-.03-.31-.05zm3.77-18.52h-7.15l3.62 5.09z"/><path class="cls-3" d="M46.2 100.37a7.57 7.57 0 1 1-7.69 7.39 7.74 7.74 0 0 1 7.69-7.39z"/><path class="cls-4" d="M99.91 108a7.57 7.57 0 1 1-7.41-7.67 7.74 7.74 0 0 1 7.41 7.67z"/></g></symbol><symbol id="icon--wallet" viewBox="0 0 94.01 70.51"><title>icon-wallet</title><g id="Layer_2" data-name="Layer 2"><g id="UI"><path class="cls-1" d="M92.05 19.59h-2V5.89A5.89 5.89 0 0 0 84.22 0H5.88A5.89 5.89 0 0 0 0 5.89v58.73a5.89 5.89 0 0 0 5.88 5.89h78.34a5.89 5.89 0 0 0 5.88-5.89v-13.7h2a2 2 0 0 0 2-2V21.54a2 2 0 0 0-2.05-1.95zm-5.88 45a2 2 0 0 1-2 2H5.88a2 2 0 0 1-2-2V5.89a2 2 0 0 1 2-2h78.34a2 2 0 0 1 2 2v13.7H70.51a15.67 15.67 0 1 0 0 31.34h15.67zM90.1 47H70.51a11.75 11.75 0 0 1 0-23.5H90.1z"/><path class="cls-1" d="M62.68 35.25a7.83 7.83 0 1 0 7.83-7.83 7.84 7.84 0 0 0-7.83 7.83zm11.75 0a3.92 3.92 0 1 1-3.92-3.92 3.92 3.92 0 0 1 3.92 3.92z"/></g></g></symbol></svg>