<svg xmlns="http://www.w3.org/2000/svg" viewBox="0 0 29.01 29.01"><title>icon-twitter</title><path class="cls-1 c-icon--twitter" d="M16.52 8.84a2.93 2.93 0 0 0-2 2.95v.5l-.51-.06a8.23 8.23 0 0 1-4.76-2.38l-.67-.67-.17.49a3 3 0 0 0 .63 3c.41.43.31.49-.38.24a1.2 1.2 0 0 0-.48-.11 3.68 3.68 0 0 0 .36 1.37 3.27 3.27 0 0 0 1.39 1.31l.5.24h-.6c-.57 0-.59 0-.53.23a3.06 3.06 0 0 0 1.89 1.68l.63.21-.55.33a5.68 5.68 0 0 1-2.7.83 3 3 0 0 0-.83.08 7.74 7.74 0 0 0 2 .9 8.55 8.55 0 0 0 6.65-.76 8.91 8.91 0 0 0 3.37-4 10.57 10.57 0 0 0 .69-3.07c0-.47 0-.53.6-1.1a6.68 6.68 0 0 0 .71-.79c.1-.19.09-.19-.43 0-.86.31-1 .27-.56-.19A3 3 0 0 0 21.41 9s-.15 0-.32.11a5.6 5.6 0 0 1-.89.35l-.55.17-.5-.34a4.12 4.12 0 0 0-.86-.45 3.46 3.46 0 0 0-1.77 0zM14.5 29A14.5 14.5 0 1 1 29 14.5 14.51 14.51 0 0 1 14.5 29z"/></svg>