<svg xmlns="http://www.w3.org/2000/svg" xmlns:xlink="http://www.w3.org/1999/xlink" viewBox="0 0 197.31 150.34">
  <title>dog</title>
  <g id="icon-dog">
      <path class="cls-1" d="M70.23,53.1A22.78,22.78,0,1,0,93,75.89,22.81,22.81,0,0,0,70.23,53.1Zm0,38.57A15.78,15.78,0,1,1,86,75.89,15.8,15.8,0,0,1,70.23,91.67Z"/>
      <path class="cls-2" d="M195.85,35.3c-5-11.64-30.19-23.84-50.48-32A7.58,7.58,0,0,0,135.07,9c-10.43-5.87-22.84-9-36.45-9s-26,3.07-36.39,8.92A7.59,7.59,0,0,0,51.94,3.28C31.66,11.46,6.43,23.65,1.46,35.3s3.67,38.3,11.79,58.6a7.56,7.56,0,0,0,7,4.77h.09a7.56,7.56,0,0,0,7-4.61l5-11.81c3.06,30.69,14.76,61.22,40.24,67.75a12.48,12.48,0,0,0,3.08.34c7.42,0,18.37-4.67,23-6.79,4.66,2.29,17.61,8.12,25.94,6.49a37.66,37.66,0,0,0,20-11c5-5.13,9.22-11.95,12.53-20.26,4.71-11.82,7-24.89,8-36.43l5,11.72a7.56,7.56,0,0,0,7,4.6h.09a7.56,7.56,0,0,0,7-4.77C192.18,73.59,200.82,46.94,195.85,35.3Zm-175,56a.53.53,0,0,1-.53.35h0a.53.53,0,0,1-.53-.37C9.28,65.11,4.85,45.2,7.9,38S28.4,20.32,54.56,9.77a.58.58,0,0,1,.75.77Zm77.8,33.22-7-9.36a1.16,1.16,0,0,1,1-1.68h12a1.13,1.13,0,0,1,1,.55c.13.21.3.63.36.63Zm24.54,18.64c-5.44,1.06-15.74-3.13-21-5.68v-6.57l9.48-12.79a7.78,7.78,0,0,0-7-11.26h-12A7.74,7.74,0,0,0,86,110.57a7.89,7.89,0,0,0,0,8.07l9.15,12.28v6.5C88,140.64,78,144.17,74.28,143.22c-11.68-3-20.82-12.37-27.18-27.88-5.29-12.9-8.34-29.76-8.62-47.54L59.2,19.26C69.67,11.23,83.28,7,98.62,7s29,4.26,39.52,12.33l20.63,48.33C158,131.41,131.35,141.58,123.17,143.17ZM177.56,91.3a.53.53,0,0,1-.53.37h0a.53.53,0,0,1-.53-.35l-10.7-25.05h0L144,15.23l-2-4.69a.53.53,0,0,1,.12-.64.54.54,0,0,1,.4-.19.62.62,0,0,1,.24.05C168.92,20.32,186.36,30.89,189.41,38S188,65.11,177.56,91.3Z"/>
      <circle class="cls-3" cx="70.23" cy="75.89" r="6.7"/>
      <circle class="cls-4" cx="126.62" cy="75.89" r="6.7"/>
  </g>
</svg>
