<svg xmlns="http://www.w3.org/2000/svg" viewBox="0 0 101.27 84.39">
  <defs>
    <style>
      .cls-1 {
        fill: #b3b3b3;
      }
    </style>
  </defs>
  <title>icon-heart</title>
  <g id="Layer_2" data-name="Layer 2">
    <g id="UI">
      <path class="cls-1" d="M74.9,0C64,0,54.66,7.24,50.64,17.53,46.61,7.24,37.25,0,26.37,0,11.83,0,0,12.94,0,28.84c0,19.09,10.94,26,23.6,34C31.66,67.93,40.8,73.7,49,83.63a2.11,2.11,0,0,0,3.25,0c8.21-9.93,17.35-15.7,25.41-20.79,12.67-8,23.6-14.91,23.6-34C101.27,12.94,89.44,0,74.9,0Zm.52,59.27C67.61,64.2,58.82,69.75,50.64,79c-8.19-9.29-17-14.83-24.78-19.77C13.3,51.33,4.22,45.6,4.22,28.84c0-13.57,9.94-24.62,22.15-24.62s22.15,11,22.15,24.62a2.11,2.11,0,0,0,4.22,0c0-13.57,9.94-24.62,22.15-24.62s22.15,11,22.15,24.62C97.05,45.6,88,51.33,75.42,59.27Z"/>
    </g>
  </g>
</svg>
