<svg xmlns="http://www.w3.org/2000/svg" viewBox="0 0 535.14 103.06">
  <defs>
    <style>
      .cls-1 {
        fill: #2e2a25;
      }

      .cls-2 {
        fill: #0071ce;
      }

      .cls-3 {
        fill: #231f20;
      }

      .cls-4 {
        fill: #fff;
        fill-rule: evenodd;
      }
    </style>
  </defs>
  <title>pets-in-stitches-logo</title>
  <g>
    <g>
      <g>
        <path class="cls-1" d="M139,85.78h-9.75v-50h13.27c10.48,0,17.31,4.18,17.31,15.52,0,10.61-5.77,15.79-16,15.79H139ZM139,59h2c5.77,0,8.89-1.26,8.89-7.76s-3.71-7.36-9.16-7.36H139Z"/>
        <path class="cls-1" d="M172.81,71c0,4.11,1.59,8.76,6.43,8.76,3.05,0,5-1.86,6.24-4.45L194,76.7c-2.25,6.5-8,10.15-14.79,10.15-10.08,0-16.25-7.16-16.25-17s5.24-17.65,15.79-17.65S194.24,60,194.24,69.86V71Zm12.67-5.77c-.47-3.32-2.59-6.56-6.17-6.56s-5.77,3.18-6.24,6.56Z"/>
        <path class="cls-1" d="M210.29,85.78H201V61h-3.19V53.21H201v-11h9.29v11H216V61h-5.7Z"/>
        <path class="cls-1" d="M236.09,60.91a7.37,7.37,0,0,0-4.91-2.25,3,3,0,0,0-3.05,2.78c0,2.39,3.39,3,6.7,4.51s6.7,3.72,6.7,9.35c0,7.23-5.83,11.54-12.67,11.54a15,15,0,0,1-11.48-5.43l4.25-5.51c1.79,2,4.18,3.78,6.9,3.78a3.5,3.5,0,0,0,3.71-3.52c0-2.85-3.25-3.52-6.5-4.91s-6.5-3.31-6.5-8.56c0-6.1,4.24-10.54,10.35-10.54,3.45,0,7.83,1.06,10.48,3.38Z"/>
        <path class="cls-2" d="M258.5,39.55A5.51,5.51,0,1,1,253,34,5.49,5.49,0,0,1,258.5,39.55Zm-.86,46.23h-9.29V53.21h9.29Z"/>
        <path class="cls-2" d="M275.28,56.2h.13c1.92-2.92,5.17-4,8.49-4,8.76,0,11.28,6.17,11.28,13.73v19.9H285.9V68.54c0-3.92.2-9-5-9-5.51,0-5.57,6.17-5.57,10.09V85.78H266V53.21h9.29Z"/>
        <path class="cls-1" d="M326.95,46.78a9,9,0,0,0-7.49-4.11c-3.12,0-6.11,2.39-6.11,5.64,0,8.43,19.84,4.91,19.84,21.69,0,10-6.24,17.12-16.45,17.12-6.9,0-11.94-4-15.39-9.75l6.3-6.17c1.33,3.85,4.84,7.29,9,7.29,4,0,6.43-3.38,6.43-7.23,0-5.17-4.78-6.63-8.69-8.16-6.43-2.65-11.14-5.91-11.14-13.66,0-8.29,6.17-15,14.59-15,4.45,0,10.61,2.19,13.67,5.57Z"/>
        <path class="cls-1" d="M349.76,85.78h-9.29V61h-3.18V53.21h3.18v-11h9.29v11h5.71V61h-5.71Z"/>
        <path class="cls-1" d="M369.46,39.55A5.5,5.5,0,1,1,364,34,5.49,5.49,0,0,1,369.46,39.55Zm-.86,46.23h-9.29V53.21h9.29Z"/>
        <path class="cls-1" d="M387.37,85.78h-9.29V61h-3.19V53.21h3.19v-11h9.29v11h5.7V61h-5.7Z"/>
        <path class="cls-1" d="M418.61,63.16c-2-2-4-3.19-6.84-3.19-5.24,0-8.23,4.91-8.23,9.69,0,5.11,3.25,9.35,8.56,9.35a8.86,8.86,0,0,0,6.5-3.11v9a16.19,16.19,0,0,1-8,2c-9.62,0-16.45-7.89-16.45-17.25,0-9.69,7.1-17.45,16.91-17.45a14.6,14.6,0,0,1,7.57,2.06Z"/>
        <path class="cls-1" d="M435,29.53v26.4h.13c1.92-2.65,5.18-3.78,8.49-3.78,8.76,0,11.27,6.17,11.27,13.73v19.9H445.6V68.54c0-3.92.2-9-5-9-5.51,0-5.57,6.17-5.57,10.09V85.78H425.7V29.53Z"/>
        <path class="cls-1" d="M470.34,71c0,4.11,1.59,8.76,6.43,8.76,3,0,5-1.86,6.23-4.45l8.56,1.4c-2.26,6.5-8,10.15-14.79,10.15-10.09,0-16.26-7.16-16.26-17s5.24-17.65,15.78-17.65S491.76,60,491.76,69.86V71ZM483,65.22c-.46-3.32-2.58-6.56-6.16-6.56s-5.77,3.18-6.24,6.56Z"/>
        <path class="cls-1" d="M514.11,60.91a7.38,7.38,0,0,0-4.91-2.25,3,3,0,0,0-3.05,2.78c0,2.39,3.39,3,6.7,4.51s6.7,3.72,6.7,9.35c0,7.23-5.84,11.54-12.67,11.54a15,15,0,0,1-11.48-5.43l4.25-5.51c1.78,2,4.18,3.78,6.89,3.78a3.51,3.51,0,0,0,3.72-3.52c0-2.85-3.25-3.52-6.5-4.91s-6.5-3.31-6.5-8.56c0-6.1,4.25-10.54,10.35-10.54,3.45,0,7.83,1.06,10.48,3.38Z"/>
      </g>
      <path class="cls-3" d="M530,76.72a5.06,5.06,0,1,1-5.23,5,5.1,5.1,0,0,1,5.2-5Zm-.06,1a4,4,0,0,0,.06,8.05,4,4,0,0,0,0-8.05Zm-.77,6.63H528v-5a10.08,10.08,0,0,1,1.94-.18,2.84,2.84,0,0,1,1.75.4,1.37,1.37,0,0,1,.5,1.08,1.3,1.3,0,0,1-1.05,1.19v.06a1.44,1.44,0,0,1,.92,1.23,3.15,3.15,0,0,0,.37,1.23h-1.26a4.25,4.25,0,0,1-.4-1.19c-.09-.56-.4-.81-1-.81h-.56Zm0-2.83h.55c.64,0,1.17-.21,1.17-.74s-.34-.77-1.08-.77a2.75,2.75,0,0,0-.65.06Z"/>
    </g>
    <g>
      <path class="cls-1" d="M68.4,17.77C64.91,12.84,61,9.52,59.18,9.84a46.21,46.21,0,0,0-8-5.33,42.42,42.42,0,0,0-31.25-2.7A29.32,29.32,0,0,0,4.27,13.11C.41,19-.69,26.45.4,33.47,2.79,48,13.19,57.78,21.62,65.32c8.85,7.49,16.52,14.22,23.1,20C57.84,96.69,66.15,103.56,66.63,103s-7-8.29-19.5-20.38c-6.21-6-13.86-13.23-22.4-20.79C16.54,54.27,7.33,45,5.39,32.71a22.78,22.78,0,0,1,16-26.48A39.93,39.93,0,0,1,49.63,7.74,44.84,44.84,0,0,1,58.43,13a28.46,28.46,0,0,0,4.44,8.69c3.81,5.37,8.14,8.85,9.67,7.77S72.21,23.14,68.4,17.77ZM70.91,27c-.82.58-3.49-1.77-6-5.27s-3.82-6.79-3-7.37,3.49,1.78,6,5.27S71.74,26.42,70.91,27Z"/>
      <path class="cls-1" d="M72.85,99.65h-.07c-4.15-1.6-5.92-4-5.91-6.72h0C67,85.27,80,75.88,84,72.38h0c12.75-10.56,34.7-24.5,34.64-42.86h0q0-1.11-.1-2.22h0C118,20.84,114.22,14,108.52,10.74h0A23.64,23.64,0,0,0,96.59,7.4h0c-10,0-19.29,6.69-28.47,12.59h0c-3.37,2.16-6.31,3.86-10.08,3.86h0a13.86,13.86,0,0,1-2.79-.29h0c-2.33-.51-7.22-1.69-7.34-5.21h0a3.8,3.8,0,0,1,.12-.91h0c.53-2.08,2.43-2.85,4.3-2.84h0a8.9,8.9,0,0,1,5.3,1.77h0l-.54.65a8.13,8.13,0,0,0-4.75-1.57h0c-1.71,0-3.07.6-3.48,2.21h0a2.78,2.78,0,0,0-.09.7h0c-.12,2.52,4.33,4,6.67,4.39h0A13.41,13.41,0,0,0,58,23h0c3.5,0,6.26-1.57,9.63-3.73h0C76.82,13.42,86.18,6.57,96.59,6.57h0A24.4,24.4,0,0,1,108.94,10h0c6,3.43,9.83,10.49,10.47,17.2h0q.11,1.16.11,2.31h0c-.05,19.07-22.32,33-34.94,43.51h0c-4.1,3.44-17,13.1-16.87,19.88h0c0,2.3,1.38,4.34,5.34,5.93h0a14.9,14.9,0,0,0,2.46.2h0a13.12,13.12,0,0,0,5.25-1h0l.34.77a13.87,13.87,0,0,1-5.59,1.09h0a14.86,14.86,0,0,1-2.66-.22Z"/>
      <path class="cls-2" d="M55.31,13.41S45.76,5,28.35,7.23C19.15,8.42,10.87,14,8.1,23.1c-3,9.77,3.29,20.74,9.58,27.93l44.92,43.8c-1.54-1.5,3.58-8.69,4.32-9.72,6.33-8.82,14.72-15.54,23.46-21.82,7.87-5.65,17.17-12,22-20.68,2.07-3.72,3.77-7.11,4.21-12a25.13,25.13,0,0,0-2.5-12.08,17.8,17.8,0,0,0-10.39-8.32,26,26,0,0,0-12.79.33C85.4,12.19,79.81,16,75,19l-2.25,1.41,2,5.61s.84,3.93-1.12,5.05a6.45,6.45,0,0,1-5.62-1.4L63.17,25.2l-2.58.43C55.41,26.49,46.76,25,45.2,19c0,0-1.4-3.65,3.09-5.89C48.29,13.13,51.09,11.44,55.31,13.41Z"/>
      <g>
        <path class="cls-4" d="M66.26,33.74A3.09,3.09,0,0,1,67,36c0,2.67-4,6.57-7.4,6.77-2.7.15-5.56-2.84-4-5.67,1-1.77,3.88-3.47,6.32-4.27C63.59,32.31,65,32.09,66.26,33.74Z"/>
        <path class="cls-4" d="M81.19,49.22c1.38,1.71.81,3.5-.3,5-2.06,2.78-8.21,5-11.36,3.41a3.55,3.55,0,0,1-1.41-4.49c1.14-1.95,4.26-4,7.06-4.65C77.82,47.9,79.31,47.54,81.19,49.22Z"/>
        <path class="cls-4" d="M77.68,38.84c2.36,2.8-.32,5.85-3.09,7.3-2.58,1.34-6.22,2.32-8.06,1.44a4.57,4.57,0,0,1-2.25-3.16,6,6,0,0,1,.8-2.13,14,14,0,0,1,6.13-4.18C73.38,37.38,76.34,37.25,77.68,38.84Z"/>
        <path class="cls-4" d="M60.58,46.67a10.82,10.82,0,0,1,1.82.75,7.73,7.73,0,0,1,3.54,8.3c-.5,2-2.09,3.14-2.94,5.26-1,2.56-.61,4.62-1.52,6.75-1.81,4.29-8,4.65-10.5.23-2.09-3.7-1.77-7.85-4.16-11.69-1.78-2.86-4.2-3.43-5.06-7a7.12,7.12,0,0,1,.81-5.14c1.6-2.63,5.59-3.36,8.24-2,1.42.74,2.31,2.13,3.81,2.78C56.5,45.79,58.61,46,60.58,46.67Z"/>
        <path class="cls-4" d="M64.42,65A3.52,3.52,0,0,1,65,63.17c1.76-2.9,6.6-4.12,9.76-3.38A3.72,3.72,0,0,1,76,66.1a13.86,13.86,0,0,1-6,2.38C67.58,68.83,64.45,67.4,64.42,65Z"/>
      </g>
    </g>
  </g>
</svg>