<svg xmlns="http://www.w3.org/2000/svg" id="icons" viewBox="0 0 50 50">
  <defs>
    <style>
      .pns-icon-calendar-path{fill:none;stroke-linecap:round;stroke-linejoin:round;stroke-width:1.5px}
    </style>
  </defs>
  <path d="M33.38 10.93a1.76 1.76 0 0 1-1.76-1.76V5.65a1.76 1.76 0 0 1 1.76-1.76 1.76 1.76 0 0 1 1.76 1.76v3.52a1.76 1.76 0 0 1-1.76 1.76zM19.31 7.41V5.65a1.76 1.76 0 1 0-3.52 0v1.76" class="pns-icon-calendar-path"/>
  <path d="M31.62 7.41H19.31v1.76a1.76 1.76 0 0 1-3.52 0V7.41A8.8 8.8 0 0 0 7 16.21v28.16h28.14a8.8 8.8 0 0 0 8.8-8.8V7.41h-8.8M43.94 16.21H6.99M19.31 23.25v14.08" class="pns-icon-calendar-path"/>
  <path d="M26.34 37.33l7.04-14.08h-8.79" class="pns-icon-calendar-path"/>
</svg>
