<svg class="c-icon c-icon--inline c-icon--printer" xmlns="http://www.w3.org/2000/svg" viewBox="0 0 12.68 11.39">
  <title>icon-printer</title>
  <g id="icon-printer">
    <g id="UI">
      <path class="cls-1" d="M12.14,2H10.6V.44A.44.44,0,0,0,10.16,0H2.47A.44.44,0,0,0,2,.44V2H.54A.54.54,0,0,0,0,2.5v5a.54.54,0,0,0,.54.54H2V11a.44.44,0,0,0,.44.44h7.68A.44.44,0,0,0,10.6,11V8.06h1.55a.54.54,0,0,0,.54-.54v-5A.54.54,0,0,0,12.14,2ZM1.22,3.63a.42.42,0,1,1,.42-.42A.42.42,0,0,1,1.22,3.63ZM9.74,8.06v2a.44.44,0,0,1-.44.44H3.38A.44.44,0,0,1,2.94,10V6.39h6.8Zm0-6.1H2.94V1.32A.44.44,0,0,1,3.38.88H9.3a.44.44,0,0,1,.44.44Z"/>
    </g>
  </g>
</svg>
