<svg class="c-icon c-icon--inline c-icon--phone" xmlns="http://www.w3.org/2000/svg" viewBox="0 0 10.72 13.35">
  <title>icon-phone</title>
  <g id="icon-phone">
    <g id="UI">
      <path class="cls-1" d="M3.17,4.8a4.54,4.54,0,0,0,.87,3A4.61,4.61,0,0,0,6.4,9.69L8.07,8.57a.47.47,0,0,1,.65.13l1.92,2.84a.47.47,0,0,1-.13.65l-1.07.72a2.79,2.79,0,0,1-1.83.43c-1.84-.15-4.08-1.7-5.73-4.14S-.35,4.1.2,2.34A2.79,2.79,0,0,1,1.28.8L2.35.08A.47.47,0,0,1,3,.21L4.92,3A.47.47,0,0,1,5,3.48a.46.46,0,0,1-.18.23Z"/>
    </g>
  </g>
</svg>
