<svg xmlns="http://www.w3.org/2000/svg" viewBox="0 0 29.06 29.06">
  <title>icon-youtube</title>
  <g id="icon-youtube">
    <g id="UI">
      <g>
        <polygon class="cls-1" points="12.61 16.65 17.25 14.22 12.61 11.81 12.61 16.65"/>
        <path class="cls-1" d="M14.56,0H14.5A14.55,14.55,0,0,0,0,14.5v.06a14.55,14.55,0,0,0,14.5,14.5h.05a14.55,14.55,0,0,0,14.5-14.5V14.5A14.55,14.55,0,0,0,14.56,0ZM23,15.85c0,3.59-1,4.43-4.5,4.43H10.26c-3.86,0-4.5-1.44-4.5-4.43V12.77c0-3.15,0-4.43,4.5-4.43h8.22c4.33,0,4.5,1.12,4.5,4.43Z"/>
      </g>
    </g>
  </g>
</svg>
